<?xml version="1.0" encoding="UTF-8" standalone="no"?>
<!DOCTYPE svg PUBLIC "-//W3C//DTD SVG 1.1//EN" "http://www.w3.org/Graphics/SVG/1.1/DTD/svg11.dtd">
<svg width="100%" height="100%" viewBox="0 0 133 155" version="1.1" xmlns="http://www.w3.org/2000/svg" xmlns:xlink="http://www.w3.org/1999/xlink" xml:space="preserve" xmlns:serif="http://www.serif.com/" style="fill-rule:evenodd;clip-rule:evenodd;stroke-linejoin:round;stroke-miterlimit:2; scale: 0.8;">
    <style>
      g path{
          fill: #000;
          fill-rule: nonzero;
      }
      @media (prefers-color-scheme: dark){
          g path{
              fill: #fafafa;
          }
      }
    </style>
    <g transform="matrix(-1.92283,0,0,1.92283,1710.16,-584.569)">
        <path d="M889.395,384.511L877.587,384.511L877.587,347.071C877.587,338.431 877.179,332.551 876.363,329.431C875.547,326.311 874.347,323.671 872.763,321.511C871.179,319.351 869.163,317.743 866.715,316.687C864.267,315.631 861.291,315.103 857.787,315.103C854.283,315.103 850.851,315.967 847.491,317.695C844.131,319.423 841.251,321.823 838.851,324.895C836.451,327.967 834.795,331.231 833.883,334.687C832.971,338.143 832.515,345.055 832.515,355.423L832.515,384.511L820.563,384.511L820.563,306.031L832.515,306.031L832.515,317.839C840.291,308.623 849.507,304.015 860.163,304.015C865.827,304.015 870.963,305.479 875.571,308.407C880.179,311.335 883.635,315.367 885.939,320.503C888.243,325.639 889.395,333.535 889.395,344.191L889.395,384.511Z" />
    </g>
</svg>
