<?xml version="1.0" encoding="UTF-8" standalone="no"?>
<!DOCTYPE svg PUBLIC "-//W3C//DTD SVG 1.1//EN" "http://www.w3.org/Graphics/SVG/1.1/DTD/svg11.dtd">
<svg width="100%" height="100%" viewBox="0 0 800 227" version="1.1" xmlns="http://www.w3.org/2000/svg" xmlns:xlink="http://www.w3.org/1999/xlink" xml:space="preserve" xmlns:serif="http://www.serif.com/" style="fill-rule:evenodd;clip-rule:evenodd;stroke-linejoin:round;stroke-miterlimit:2;">
    <g id="Heiti" transform="matrix(1.92283,0,0,1.92283,-937.19,-550.951)">
        <path d="M570.291,384.511L558.483,384.511L558.483,347.071C558.483,338.431 558.075,332.551 557.259,329.431C556.443,326.311 555.243,323.671 553.659,321.511C552.075,319.351 550.059,317.743 547.611,316.687C545.163,315.631 542.187,315.103 538.683,315.103C535.179,315.103 531.747,315.967 528.387,317.695C525.027,319.423 522.147,321.823 519.747,324.895C517.347,327.967 515.691,331.231 514.779,334.687C513.867,338.143 513.411,345.055 513.411,355.423L513.411,384.511L501.459,384.511L501.459,306.031L513.411,306.031L513.411,317.839C521.187,308.623 530.403,304.015 541.059,304.015C546.723,304.015 551.859,305.479 556.467,308.407C561.075,311.335 564.531,315.367 566.835,320.503C569.139,325.639 570.291,333.535 570.291,344.191L570.291,384.511Z" style="fill:white;fill-rule:nonzero;"/>
        <path d="M626.595,304.015C637.923,304.015 647.547,308.095 655.467,316.255C663.387,324.415 667.347,334.207 667.347,345.631C667.347,357.055 663.435,366.823 655.611,374.935C647.787,383.047 638.115,387.103 626.595,387.103C615.075,387.103 605.379,383.047 597.507,374.935C589.635,366.823 585.699,357.055 585.699,345.631C585.699,334.207 589.659,324.415 597.579,316.255C605.499,308.095 615.171,304.015 626.595,304.015ZM626.595,375.727C634.563,375.727 641.355,372.823 646.971,367.015C652.587,361.207 655.395,354.199 655.395,345.991C655.395,337.783 652.539,330.679 646.827,324.679C641.115,318.679 634.347,315.679 626.523,315.679C618.699,315.679 611.955,318.679 606.291,324.679C600.627,330.679 597.795,337.807 597.795,346.063C597.795,354.319 600.531,361.327 606.003,367.087C611.475,372.847 618.339,375.727 626.595,375.727Z" style="fill:white;fill-rule:nonzero;"/>
        <path d="M716.739,307.183L710.547,317.263C708.915,316.399 707.331,315.967 705.795,315.967C702.819,315.967 700.131,317.431 697.731,320.359C695.331,323.287 693.531,327.127 692.331,331.879C691.131,336.631 690.531,345.199 690.531,357.583L690.531,384.511L678.435,384.511L678.435,306.031L690.531,306.031L690.531,314.527C692.931,310.975 695.355,308.335 697.803,306.607C700.251,304.879 703.035,304.015 706.155,304.015C709.275,304.015 712.803,305.071 716.739,307.183Z" style="fill:white;fill-rule:nonzero;"/>
        <path d="M804.291,347.359L735.459,347.359C735.939,355.999 738.843,362.935 744.171,368.167C749.499,373.399 755.859,376.015 763.251,376.015C775.827,376.015 785.427,369.823 792.051,357.439L802.131,362.623C797.619,370.975 792.291,377.143 786.147,381.127C780.003,385.111 772.659,387.103 764.115,387.103C752.307,387.103 742.563,383.047 734.883,374.935C727.203,366.823 723.363,357.055 723.363,345.631C723.363,334.207 727.227,324.415 734.955,316.255C742.683,308.095 752.259,304.015 763.683,304.015C775.107,304.015 784.659,307.879 792.339,315.607C800.019,323.335 804.003,333.919 804.291,347.359ZM791.043,336.847C789.603,330.127 786.339,324.895 781.251,321.151C776.163,317.407 770.307,315.535 763.683,315.535C750.243,315.535 741.315,322.639 736.899,336.847L791.043,336.847Z" style="fill:white;fill-rule:nonzero;"/>
        <g transform="matrix(-1,0,0,1,1709.96,0)">
            <path d="M889.395,384.511L877.587,384.511L877.587,347.071C877.587,338.431 877.179,332.551 876.363,329.431C875.547,326.311 874.347,323.671 872.763,321.511C871.179,319.351 869.163,317.743 866.715,316.687C864.267,315.631 861.291,315.103 857.787,315.103C854.283,315.103 850.851,315.967 847.491,317.695C844.131,319.423 841.251,321.823 838.851,324.895C836.451,327.967 834.795,331.231 833.883,334.687C832.971,338.143 832.515,345.055 832.515,355.423L832.515,384.511L820.563,384.511L820.563,306.031L832.515,306.031L832.515,317.839C840.291,308.623 849.507,304.015 860.163,304.015C865.827,304.015 870.963,305.479 875.571,308.407C880.179,311.335 883.635,315.367 885.939,320.503C888.243,325.639 889.395,333.535 889.395,344.191L889.395,384.511Z" style="fill:white;fill-rule:nonzero;"/>
        </g>
    </g>
</svg>
