<?xml version="1.0" standalone="no"?>
<!DOCTYPE svg PUBLIC "-//W3C//DTD SVG 20010904//EN"
 "http://www.w3.org/TR/2001/REC-SVG-20010904/DTD/svg10.dtd">
<svg version="1.0" xmlns="http://www.w3.org/2000/svg"
 width="700.000000pt" height="700.000000pt" viewBox="0 0 700.000000 700.000000"
 preserveAspectRatio="xMidYMid meet">
<metadata>
Created by potrace 1.14, written by Peter Selinger 2001-2017
</metadata>
<g transform="translate(0.000000,700.000000) scale(0.100000,-0.100000)"
fill="#000000" stroke="none">
<path d="M3112 5379 c2 -9 -4 -13 -15 -11 -10 2 -25 -2 -32 -8 -8 -7 -19 -9
-25 -5 -5 3 -10 2 -10 -3 0 -10 -47 -27 -64 -23 -4 1 -15 -6 -25 -17 -9 -10
-23 -17 -31 -17 -8 0 -23 -7 -33 -15 -10 -8 -23 -15 -30 -15 -7 -1 -11 -6 -10
-13 2 -6 -4 -9 -12 -6 -8 3 -19 -3 -27 -15 -7 -12 -18 -21 -25 -21 -7 0 -13
-7 -13 -15 0 -8 -6 -12 -14 -9 -7 3 -16 -2 -19 -10 -4 -9 -15 -13 -27 -11 -15
3 -20 0 -17 -9 6 -15 -17 -16 -30 -1 -5 4 -1 5 7 0 8 -5 12 -4 7 1 -8 9 -39
14 -99 16 -20 1 -35 6 -31 11 3 5 -5 4 -17 -3 -20 -11 -22 -10 -17 3 4 11 1
15 -13 12 -11 -2 -22 1 -26 6 -4 6 -11 6 -20 -2 -11 -9 -14 -8 -14 2 0 11 -2
11 -10 -1 -9 -13 -10 -13 -10 0 0 12 -2 12 -9 1 -5 -7 -11 -9 -14 -4 -3 4 -53
8 -110 8 -72 -1 -104 2 -99 9 4 8 1 8 -9 0 -8 -5 -53 -10 -101 -10 -47 1 -84
-2 -82 -5 2 -4 -6 -7 -19 -7 -32 1 -82 -8 -96 -16 -6 -4 -11 -2 -11 5 0 9 -3
9 -14 0 -7 -6 -21 -9 -30 -5 -9 3 -23 1 -31 -6 -8 -7 -15 -9 -15 -6 0 4 -10 2
-21 -5 -15 -8 -19 -8 -15 0 4 6 3 11 -3 11 -5 0 -11 -5 -13 -11 -2 -7 -19 -13
-38 -15 -32 -3 -67 -9 -80 -14 -3 -1 -9 -2 -14 -1 -4 1 -14 -3 -20 -9 -7 -5
-28 -12 -47 -14 -20 -2 -33 -9 -31 -16 2 -7 -3 -10 -11 -7 -8 3 -20 0 -27 -6
-10 -9 -11 -9 -5 3 8 13 7 13 -8 1 -9 -7 -17 -10 -17 -5 0 4 -7 -1 -15 -12
-11 -14 -15 -16 -15 -4 0 12 -3 11 -11 -3 -6 -9 -15 -15 -20 -11 -6 3 -19 -2
-30 -12 -10 -9 -19 -14 -19 -11 0 3 -13 1 -30 -4 -16 -6 -27 -15 -24 -21 4 -6
-4 -8 -19 -6 -17 2 -32 -5 -45 -20 -13 -15 -25 -20 -37 -15 -13 4 -16 3 -11
-5 4 -7 1 -12 -8 -12 -9 0 -16 -5 -16 -11 0 -5 -5 -7 -10 -4 -6 3 -10 0 -10
-7 0 -9 -3 -9 -10 2 -9 13 -14 7 -11 -13 0 -4 -2 -6 -6 -5 -15 4 -53 -14 -48
-22 4 -7 -31 -23 -48 -21 -4 1 -6 -5 -5 -11 2 -7 -3 -12 -10 -10 -6 1 -12 -3
-12 -10 0 -6 -3 -8 -7 -5 -3 4 -12 -1 -20 -11 -10 -11 -12 -12 -8 -2 4 10 2 9
-8 -2 -8 -10 -19 -18 -25 -18 -6 0 -16 -9 -22 -20 -6 -11 -15 -18 -21 -15 -5
4 -9 -1 -9 -9 0 -9 -8 -16 -19 -16 -11 0 -23 -5 -27 -12 -5 -7 -3 -8 6 -3 9 6
11 4 6 -4 -5 -7 -14 -10 -22 -7 -8 3 -13 0 -11 -7 1 -7 -4 -11 -11 -9 -7 1
-16 -6 -19 -15 -11 -29 -30 -45 -36 -30 -4 9 -6 9 -6 0 -1 -15 -48 -63 -61
-63 -6 0 -10 -6 -10 -13 0 -7 -12 -21 -27 -32 -41 -31 -74 -63 -74 -72 0 -4
-7 -7 -15 -5 -8 2 -13 -1 -12 -5 3 -10 -32 -64 -52 -80 -8 -7 -12 -13 -8 -13
3 0 -7 -14 -23 -31 -16 -17 -29 -34 -29 -38 0 -4 -11 -14 -25 -21 -14 -7 -23
-15 -20 -18 2 -3 10 -1 18 4 7 5 5 2 -5 -7 -9 -9 -14 -19 -11 -23 3 -3 -2 -8
-11 -12 -9 -3 -13 -10 -10 -15 3 -5 0 -9 -7 -9 -7 0 -9 -3 -6 -7 4 -3 -1 -12
-11 -20 -11 -10 -12 -12 -2 -8 13 6 13 5 0 -7 -9 -7 -15 -20 -15 -28 0 -8 -5
-19 -12 -25 -7 -5 -14 -22 -15 -37 -1 -15 -8 -30 -16 -33 -7 -3 -10 -9 -7 -15
3 -5 3 -15 -1 -22 -10 -16 -16 -54 -16 -96 1 -18 -3 -30 -7 -28 -4 3 -8 -8 -9
-24 0 -17 -4 -40 -7 -53 -5 -18 -4 -19 5 -7 9 12 10 10 6 -12 -4 -16 -2 -28 4
-28 5 0 10 -5 10 -11 0 -5 -4 -7 -10 -4 -5 3 -10 1 -10 -4 0 -6 5 -11 11 -11
5 0 8 -4 4 -9 -3 -5 0 -13 6 -17 8 -4 7 -9 -2 -15 -10 -6 -11 -9 -1 -9 6 0 12
-8 12 -18 0 -10 6 -24 13 -31 10 -11 9 -13 -3 -7 -8 4 -7 1 4 -8 10 -8 15 -20
11 -26 -4 -7 2 -14 14 -17 19 -5 22 -9 21 -28 -1 -10 67 -75 79 -75 6 0 11 -5
11 -11 0 -6 7 -9 15 -5 8 3 14 2 12 -2 -1 -4 3 -8 8 -10 6 -2 25 -13 44 -25
22 -13 31 -16 26 -6 -7 12 -6 12 7 1 8 -7 44 -15 79 -18 35 -3 66 -7 70 -10 4
-2 10 -1 13 4 2 4 27 7 54 7 30 0 48 3 45 9 -4 5 0 7 8 4 8 -3 25 -1 39 5 14
5 36 11 50 12 13 1 26 7 28 13 2 6 9 9 17 6 7 -3 16 0 20 5 3 6 11 9 16 6 5
-4 9 -1 9 4 0 6 6 10 13 9 6 -2 11 3 9 10 -1 7 9 12 29 12 17 0 28 4 24 10 -3
6 1 10 11 10 9 0 23 8 31 18 10 11 12 12 8 2 -4 -10 -2 -9 8 2 8 10 17 15 20
11 4 -3 10 2 13 11 5 13 9 14 14 6 5 -9 10 -6 15 9 3 11 13 21 21 21 8 0 12 5
9 10 -3 6 1 10 10 10 9 0 31 16 49 36 22 24 38 34 46 29 9 -5 11 -4 6 4 -4 6
0 14 8 17 9 3 16 13 16 21 0 8 4 12 9 8 5 -3 12 4 16 15 4 11 17 28 31 36 13
9 21 20 18 25 -3 5 2 9 11 9 9 0 13 5 10 10 -3 6 1 10 9 10 9 0 15 3 14 8 -3
12 24 62 34 62 4 0 7 3 6 8 -4 15 23 52 34 46 6 -4 8 -3 4 4 -3 6 -1 14 5 17
5 4 8 13 5 20 -2 7 2 16 11 19 8 4 13 13 9 21 -3 8 -1 17 5 20 5 4 7 10 4 15
-3 4 1 10 9 13 7 3 16 15 19 26 3 12 1 19 -4 15 -17 -10 -9 5 12 25 12 11 19
27 16 35 -3 8 -1 17 6 20 9 3 8 5 -1 5 -7 1 -11 5 -8 9 3 5 -2 9 -10 9 -8 0
-13 -6 -10 -14 3 -7 2 -12 -2 -12 -23 4 -34 -3 -28 -17 4 -9 2 -13 -5 -8 -7 4
-9 0 -5 -14 4 -11 3 -23 -3 -26 -15 -9 -52 -78 -39 -71 7 4 2 -3 -12 -15 -14
-12 -18 -19 -10 -15 8 4 4 -2 -9 -13 -16 -13 -21 -24 -16 -33 5 -8 5 -11 0 -7
-10 9 -35 -17 -35 -37 0 -9 -4 -13 -10 -10 -5 3 -11 1 -11 -4 -1 -6 -2 -15 -3
-20 0 -5 -5 -13 -10 -18 -5 -5 -6 -2 -2 7 4 8 -6 -1 -23 -20 -17 -19 -31 -39
-31 -43 0 -5 -4 -5 -10 -2 -5 3 -10 -1 -10 -10 0 -9 -4 -13 -10 -10 -6 3 -10
-1 -10 -10 0 -9 -4 -14 -9 -11 -5 3 -12 -1 -15 -10 -3 -8 -11 -12 -17 -8 -7 4
-9 3 -6 -3 6 -10 -31 -48 -40 -40 -6 6 -53 -41 -53 -53 0 -5 -6 -7 -14 -4 -7
3 -16 -2 -19 -10 -3 -8 -16 -20 -28 -26 -17 -10 -20 -9 -14 2 5 7 -3 3 -17 -9
-13 -13 -27 -23 -31 -23 -4 0 -16 -9 -27 -20 -12 -12 -25 -18 -30 -15 -6 4
-10 2 -10 -4 0 -5 -10 -13 -22 -17 -13 -4 -29 -14 -36 -23 -10 -12 -12 -12 -6
-1 7 13 6 13 -10 0 -10 -8 -26 -15 -35 -15 -9 0 -15 -6 -13 -13 2 -9 -6 -12
-27 -9 -17 3 -31 1 -33 -4 -2 -4 -12 -10 -23 -12 -11 -2 -27 -7 -36 -11 -9 -4
-20 -6 -25 -5 -5 1 -11 0 -14 -1 -18 -7 -60 -4 -60 5 0 7 -3 7 -8 0 -8 -12
-22 -13 -39 -2 -8 5 -13 3 -13 -5 0 -9 -3 -9 -10 2 -5 8 -10 12 -10 8 0 -9
-38 11 -73 38 -28 22 -37 40 -14 29 6 -4 5 -1 -3 7 -8 7 -16 20 -18 28 -1 8
-8 25 -14 38 -10 19 -9 25 2 32 13 8 13 10 0 10 -9 0 -16 9 -16 19 0 11 4 17
9 14 5 -3 6 12 2 35 -5 33 -3 42 12 51 12 7 13 10 4 11 -9 0 -10 4 -4 13 5 6
8 24 7 40 -2 18 1 25 8 21 8 -5 9 -1 5 10 -5 13 -3 17 7 13 10 -4 13 -1 9 9
-3 8 0 21 7 29 7 8 9 15 6 15 -4 0 0 7 8 16 9 8 16 22 16 30 0 9 7 23 16 31 8
9 13 24 11 35 -3 10 -2 16 3 13 12 -8 33 23 26 40 -3 9 0 15 9 15 8 0 15 6 15
14 0 8 7 16 15 20 8 3 15 14 15 25 0 11 9 25 20 31 11 6 20 16 20 23 0 7 7 22
16 33 14 18 15 18 4 -6 -11 -24 -10 -24 4 -6 9 11 16 26 16 34 0 7 5 10 12 6
6 -4 8 -3 5 3 -9 14 43 73 63 73 13 0 13 1 0 10 -12 7 -12 10 -1 10 7 0 11 6
8 14 -4 10 -1 13 9 9 9 -3 14 1 14 13 0 9 3 14 6 11 4 -4 25 13 48 36 22 23
44 41 49 39 4 -1 12 9 17 24 6 14 14 22 20 19 5 -3 10 1 10 10 0 9 4 14 9 11
4 -3 13 6 19 19 7 14 17 25 23 25 6 0 31 20 55 44 24 25 45 39 48 33 2 -7 5
-5 5 4 1 9 13 25 29 35 26 17 27 17 12 -2 -8 -10 6 0 32 24 48 43 65 52 52 30
-4 -7 7 2 25 21 17 19 31 31 31 26 0 -4 8 2 19 13 10 12 21 19 25 15 3 -3 6
-1 6 6 0 7 5 9 10 6 6 -3 10 -3 10 2 0 4 13 17 28 28 27 19 27 19 12 0 -14
-19 -14 -19 6 -2 11 9 24 14 29 10 4 -5 5 -2 1 5 -5 8 -1 12 11 12 10 0 29 7
41 16 13 9 29 13 37 10 8 -3 14 -2 14 2 -4 24 3 33 20 27 11 -3 23 0 27 6 5 8
3 9 -6 4 -8 -5 -11 -4 -6 3 4 6 13 9 21 5 8 -3 15 -1 15 3 0 13 53 35 97 40
20 3 41 10 45 17 4 7 8 8 8 4 0 -4 9 -3 21 3 11 6 33 12 49 12 17 1 27 5 23
11 -3 6 -1 7 6 3 6 -4 18 -2 26 4 8 6 19 9 25 5 5 -3 10 -2 10 4 0 5 9 8 20 6
11 -2 20 1 20 7 0 7 4 7 14 -1 10 -9 16 -8 26 4 7 8 18 15 24 15 6 0 4 -5 -4
-10 -13 -8 -13 -10 1 -10 9 0 22 7 29 15 7 9 18 12 24 7 14 -9 37 -9 54 1 6 5
12 4 12 -2 0 -7 9 -7 23 -3 12 5 74 7 137 5 165 -5 190 -7 190 -16 0 -4 5 -5
10 -2 6 3 10 2 10 -3 0 -5 11 -8 25 -7 14 2 25 -1 25 -7 0 -6 7 -8 15 -4 46
17 51 -26 9 -71 -13 -14 -21 -29 -18 -34 3 -5 1 -9 -5 -9 -12 0 -91 -116 -84
-124 4 -3 1 -6 -5 -6 -6 0 -19 -16 -28 -35 -9 -19 -21 -32 -27 -28 -5 3 -7 1
-3 -5 3 -6 2 -13 -4 -17 -6 -4 -8 -11 -5 -16 4 -5 1 -9 -5 -9 -6 0 -8 -5 -4
-12 5 -7 2 -9 -8 -5 -12 4 -14 1 -10 -15 3 -14 -1 -26 -13 -34 -11 -8 -15 -14
-11 -14 5 0 3 -7 -4 -15 -7 -8 -9 -15 -4 -15 4 0 -1 -7 -12 -16 -10 -8 -12
-12 -4 -8 11 6 10 2 -3 -13 -9 -11 -15 -22 -12 -25 3 -3 -4 -13 -14 -22 -11
-10 -17 -24 -15 -31 3 -7 0 -16 -7 -21 -8 -5 -10 -3 -4 6 6 9 4 11 -4 6 -7 -5
-10 -14 -7 -22 3 -8 1 -14 -4 -14 -5 0 -6 -7 -3 -17 4 -10 2 -14 -5 -9 -9 5
-27 -27 -24 -44 0 -3 -6 -8 -13 -13 -8 -4 -11 -15 -8 -24 4 -11 3 -14 -5 -9
-8 5 -10 2 -6 -8 3 -9 1 -16 -5 -16 -6 0 -11 -10 -11 -22 0 -19 -2 -20 -10 -8
-8 12 -10 8 -11 -15 -1 -16 -1 -34 0 -38 1 -5 -3 -6 -8 -3 -8 5 -26 -28 -23
-44 0 -3 -6 -9 -14 -13 -8 -5 -12 -12 -9 -18 4 -5 2 -9 -2 -9 -10 0 -39 -70
-35 -83 1 -4 -4 -10 -12 -13 -8 -3 -12 -12 -9 -20 3 -8 0 -14 -6 -14 -6 0 -11
-7 -11 -15 0 -8 -4 -15 -10 -15 -5 0 -10 -5 -10 -11 0 -5 6 -7 13 -4 6 4 4 0
-5 -8 -21 -16 -24 -31 -5 -22 6 4 2 -2 -10 -13 -13 -11 -23 -26 -23 -34 0 -7
-7 -23 -15 -34 -8 -12 -11 -24 -8 -28 3 -3 1 -6 -5 -6 -7 0 -11 -3 -11 -7 4
-23 -2 -43 -11 -38 -6 3 -7 -1 -4 -9 4 -9 1 -16 -6 -16 -7 0 -10 -7 -6 -16 4
-10 2 -13 -6 -8 -8 5 -9 2 -5 -10 4 -10 3 -15 -3 -11 -6 3 -11 1 -11 -4 -4
-35 -20 -71 -30 -71 -6 0 -7 -5 -4 -10 3 -6 -3 -23 -14 -39 -11 -15 -18 -31
-14 -35 3 -3 -1 -14 -9 -23 -9 -10 -19 -29 -23 -43 -4 -14 -15 -31 -24 -38
-12 -10 -12 -12 -1 -6 12 6 13 4 3 -7 -7 -7 -13 -21 -13 -32 0 -10 -5 -15 -10
-12 -5 3 -10 -3 -10 -13 0 -11 -7 -25 -15 -32 -8 -6 -17 -22 -21 -33 -3 -12
-14 -31 -23 -41 -9 -11 -10 -16 -4 -12 9 5 11 2 7 -8 -3 -9 -10 -16 -16 -16
-5 0 -6 -4 -3 -10 3 -5 -1 -10 -9 -10 -9 0 -17 -7 -17 -15 -1 -8 -3 -19 -4
-25 -1 -5 -3 -17 -4 -25 0 -8 -8 -15 -17 -15 -11 0 -14 -6 -9 -20 4 -13 1 -22
-9 -26 -8 -3 -17 -12 -20 -20 -4 -10 -2 -13 7 -8 6 4 2 -4 -9 -17 -12 -13 -25
-34 -28 -46 -4 -11 -13 -24 -21 -27 -8 -3 -12 -12 -9 -21 3 -8 1 -15 -5 -15
-6 0 -11 -7 -11 -15 0 -8 -4 -15 -9 -15 -5 0 -12 -14 -16 -30 -4 -18 -11 -27
-18 -23 -6 4 -8 0 -4 -10 3 -10 2 -17 -3 -17 -6 0 -18 -17 -28 -37 -9 -21 -21
-41 -25 -44 -5 -3 -8 -9 -8 -13 3 -21 -1 -27 -15 -22 -12 5 -14 1 -9 -15 5
-15 4 -19 -4 -15 -7 4 -11 -1 -11 -13 0 -12 -7 -21 -15 -21 -8 0 -14 -3 -14
-7 3 -20 -2 -34 -11 -28 -5 3 -10 -3 -10 -14 0 -12 -4 -21 -9 -21 -5 0 -17
-17 -26 -37 -10 -21 -24 -42 -31 -46 -8 -4 -14 -13 -14 -18 0 -6 -7 -17 -15
-26 -8 -8 -12 -20 -8 -26 3 -7 3 -9 -2 -5 -7 7 -35 -14 -37 -29 -3 -19 -67
-99 -86 -109 -12 -6 -26 -15 -30 -19 -4 -5 -1 -5 5 -1 9 5 11 2 7 -8 -3 -9
-11 -14 -17 -13 -7 1 -11 -4 -10 -10 2 -7 -2 -14 -7 -14 -6 -1 -14 -2 -19 -3
-5 0 -13 -5 -18 -10 -5 -5 -3 -6 4 -2 7 4 13 4 13 1 0 -10 -28 -35 -38 -35 -6
0 -20 -12 -32 -28 -12 -15 -18 -20 -14 -12 5 11 2 10 -12 -3 -60 -56 -85 -72
-107 -68 -5 1 -6 -3 -2 -9 3 -5 -1 -10 -10 -10 -9 0 -13 -4 -10 -10 3 -6 -1
-7 -9 -4 -11 4 -16 0 -16 -12 0 -16 -2 -17 -10 -4 -9 14 -14 7 -11 -13 1 -5
-3 -6 -8 -3 -5 4 -13 1 -16 -5 -4 -5 -13 -8 -21 -5 -8 3 -14 1 -14 -4 0 -6 -9
-10 -21 -10 -13 0 -18 -4 -13 -12 6 -10 4 -10 -8 0 -9 7 -18 9 -20 3 -1 -5
-10 -11 -18 -13 -8 -2 -18 -7 -21 -11 -4 -5 -18 -10 -32 -10 -14 -1 -23 -6
-19 -11 3 -5 -2 -7 -10 -3 -9 3 -20 1 -25 -4 -6 -6 -23 -10 -39 -9 -16 0 -55
1 -87 1 -38 0 -55 4 -51 11 4 6 3 8 -3 5 -5 -3 -22 0 -37 8 -14 8 -24 10 -20
4 3 -6 -3 -5 -14 2 -12 7 -18 17 -15 23 4 5 -1 7 -11 3 -10 -4 -15 -3 -11 3 3
6 1 10 -4 10 -6 0 -11 4 -11 8 0 5 16 9 35 9 19 0 32 -4 29 -8 -2 -4 0 -10 6
-14 5 -3 10 2 11 12 0 10 3 13 5 7 3 -7 18 -9 37 -7 18 3 40 6 49 6 9 1 14 5
11 10 -3 5 0 8 7 5 14 -4 18 -2 85 59 22 20 33 33 25 29 -8 -5 1 6 20 24 19
18 28 29 20 25 -12 -7 -13 -5 -2 6 6 7 12 17 12 22 0 4 -6 5 -12 1 -10 -6 -10
-4 -2 7 16 21 24 59 12 59 -6 0 -5 6 2 15 10 12 10 15 0 15 -8 0 -10 3 -7 7 4
3 1 13 -6 21 -10 13 -9 14 2 7 10 -5 12 -4 7 3 -4 7 -14 12 -22 12 -8 0 -14 5
-14 11 0 5 4 7 10 4 6 -3 7 1 4 10 -4 9 -9 14 -11 11 -3 -3 -14 5 -25 17 -11
12 -17 15 -13 7 4 -8 -1 -6 -10 5 -9 11 -27 20 -41 20 -14 1 -28 5 -32 10 -10
14 -32 17 -32 5 0 -6 -5 -10 -11 -10 -5 0 -7 6 -3 13 6 10 4 10 -7 0 -7 -7
-28 -13 -45 -13 -18 0 -39 -7 -47 -15 -8 -8 -17 -11 -21 -8 -3 4 -6 0 -6 -7 0
-7 -3 -11 -6 -7 -6 6 -10 4 -58 -39 -38 -34 -78 -93 -71 -105 4 -5 2 -9 -4 -9
-6 0 -15 -10 -22 -21 -9 -17 -8 -20 3 -13 10 6 11 5 2 -7 -15 -19 -18 -124 -4
-150 7 -12 8 -19 3 -16 -5 4 -10 0 -10 -8 0 -8 5 -13 11 -12 5 1 10 -9 11 -22
0 -13 6 -26 13 -28 6 -3 12 -11 12 -19 0 -8 5 -14 11 -14 5 0 7 -4 4 -10 -3
-5 1 -10 9 -10 8 0 18 -9 21 -20 4 -13 15 -20 31 -20 13 0 24 -4 24 -10 0 -5
7 -10 16 -10 8 0 13 -4 9 -9 -3 -6 6 -8 21 -5 14 3 23 1 20 -5 -3 -5 1 -12 10
-15 24 -9 31 -7 14 4 -13 8 -13 10 2 10 9 0 20 -5 23 -10 4 -6 10 -8 15 -5 5
3 11 1 14 -4 5 -8 58 -6 84 4 7 3 10 0 7 -5 -4 -6 5 -9 19 -8 15 1 26 6 26 11
0 5 6 5 13 -1 10 -9 19 -7 37 5 13 9 20 11 16 5 -4 -7 -1 -12 8 -12 9 0 16 5
16 11 0 7 10 9 25 5 14 -4 25 -3 25 1 0 5 12 9 28 10 61 4 80 8 79 18 -1 5 7
9 18 10 11 0 26 4 32 8 7 5 13 5 13 2 0 -4 7 0 15 8 8 9 24 13 35 10 12 -3 20
0 20 6 0 7 4 10 9 7 5 -3 11 0 14 8 4 9 14 12 29 9 13 -3 19 -2 15 2 -10 11
62 47 76 38 6 -3 7 -1 3 5 -4 7 -2 12 4 12 6 0 9 4 6 9 -3 4 4 8 17 7 13 -1
21 4 20 12 -3 11 10 17 32 12 5 -1 14 5 20 14 6 8 18 16 25 18 8 2 25 15 38
31 13 15 30 27 38 27 7 0 21 11 30 25 9 14 23 25 31 25 8 0 12 4 9 9 -3 5 4
11 15 14 12 3 18 10 14 16 -4 7 0 8 10 5 10 -4 15 -2 13 7 -2 7 3 14 10 15 6
1 17 2 23 3 5 0 7 6 4 11 -3 6 -1 10 5 10 14 0 9 -52 -5 -62 -6 -5 -4 -12 5
-18 10 -6 11 -10 3 -10 -7 0 -13 -5 -13 -11 0 -5 6 -7 13 -3 7 5 7 1 -2 -10
-13 -15 -13 -19 0 -27 8 -5 9 -9 3 -9 -6 0 -11 -7 -11 -15 0 -8 4 -15 9 -15 5
0 6 -5 3 -10 -3 -6 -1 -10 5 -10 6 0 10 -6 9 -13 -3 -25 1 -38 10 -32 6 3 8
-4 6 -15 -2 -11 0 -18 4 -15 5 3 12 -2 15 -10 3 -8 9 -14 13 -13 4 2 10 -2 12
-7 8 -18 51 -46 61 -40 6 3 23 -3 39 -14 33 -24 45 -27 36 -8 -4 6 -1 5 7 -4
7 -8 27 -15 44 -15 16 0 35 -4 42 -8 7 -4 12 -2 12 4 0 6 12 3 27 -7 15 -10
24 -12 20 -5 -10 16 5 16 22 -1 11 -10 12 -9 6 3 -7 12 -6 13 6 4 8 -6 24 -10
37 -8 13 2 22 -1 22 -9 0 -8 3 -8 9 2 5 8 16 11 25 8 9 -4 16 -1 16 6 0 8 4 6
10 -3 5 -8 10 -10 10 -3 0 6 13 10 30 9 17 -1 30 0 30 3 0 3 17 7 38 8 93 3
122 7 122 14 0 4 12 6 26 3 14 -3 23 -1 20 4 -3 5 8 8 24 7 17 -1 30 1 30 5 0
4 12 5 26 2 20 -4 25 -2 19 8 -5 9 -4 11 4 6 6 -4 18 -2 26 4 8 6 19 9 25 5 5
-3 10 -2 10 4 0 5 11 8 24 7 14 -2 27 3 30 10 3 7 14 11 26 9 11 -2 20 0 20 5
0 5 7 6 17 3 12 -5 14 -3 8 7 -6 10 -4 12 8 7 10 -4 17 -2 17 4 0 6 7 9 15 5
8 -3 15 -1 15 5 0 6 4 7 10 4 6 -3 10 -1 10 5 0 6 4 9 9 6 5 -4 11 -2 13 4 1
5 16 11 31 12 15 1 35 10 44 20 9 10 22 18 30 18 8 0 12 4 9 9 -4 5 2 8 11 7
10 -2 24 5 31 15 7 11 20 19 27 19 22 0 76 36 67 45 -4 4 1 6 10 2 9 -3 19 0
22 9 3 8 11 13 18 12 7 -2 12 3 11 9 -3 12 17 18 40 14 5 -1 6 2 3 7 -2 4 9
17 25 27 16 11 29 23 29 28 0 4 6 7 14 7 8 0 18 5 22 12 5 7 3 8 -6 3 -9 -5
-11 -4 -6 3 4 7 14 12 22 12 8 0 14 3 14 8 0 4 16 18 35 31 19 13 35 30 35 37
0 8 4 14 9 14 5 0 35 26 67 57 33 31 50 50 38 42 -11 -8 -7 -2 8 12 15 14 28
31 28 38 0 7 4 10 9 7 5 -3 14 1 21 9 7 8 9 15 4 15 -4 0 1 7 12 16 10 8 12
12 4 8 -8 -4 -4 4 10 18 14 13 29 22 34 20 5 -3 6 0 3 5 -7 12 30 58 53 66 10
4 11 6 2 6 -10 1 -10 4 0 15 7 8 16 12 21 9 4 -2 7 5 7 16 0 11 7 26 15 34 7
8 17 26 21 41 3 14 12 26 20 26 8 0 14 9 14 20 0 11 5 20 10 20 6 0 9 3 9 8
-3 19 2 33 10 27 6 -3 8 3 6 15 -2 11 1 23 7 26 7 5 8 2 3 -6 -6 -9 -4 -11 4
-6 7 5 10 14 7 21 -2 7 2 21 10 32 9 10 12 12 8 4 -5 -9 -3 -12 4 -7 7 4 12
24 12 44 0 24 3 32 9 24 8 -13 16 8 28 78 2 14 10 28 18 32 7 5 12 19 10 33
-1 14 1 25 4 25 4 0 14 16 23 35 8 19 12 32 7 29 -5 -3 -6 2 -3 10 3 9 10 16
15 16 4 0 5 7 2 17 -4 10 -2 14 4 10 7 -4 11 2 11 16 2 50 11 118 19 130 4 6
8 28 8 47 1 20 5 41 9 48 4 7 5 19 2 27 -7 18 3 47 14 40 4 -3 8 12 8 33 0 20
2 64 4 97 3 33 1 68 -4 79 -7 12 -7 16 0 12 10 -6 8 66 -3 84 -3 5 0 10 7 10
8 0 9 3 3 8 -5 4 -10 37 -10 75 0 37 -3 67 -7 67 -5 0 -8 5 -8 11 0 5 4 7 10
4 6 -3 7 1 4 9 -3 9 -10 16 -14 16 -5 0 -7 11 -5 25 1 14 -3 25 -9 25 -7 0 -6
4 2 9 10 6 10 10 -3 21 -13 11 -13 15 -3 21 10 7 10 9 1 9 -7 0 -10 7 -6 15 3
9 -2 24 -11 34 -10 11 -17 25 -16 33 3 22 -12 58 -21 52 -6 -3 -8 6 -5 20 3
15 1 24 -5 21 -5 -4 -9 2 -9 12 0 11 -5 24 -12 31 -7 7 -8 12 -2 12 5 0 2 5
-6 10 -13 9 -13 10 0 10 8 0 4 6 -10 13 -15 8 -24 20 -22 30 2 10 -14 38 -34
62 -20 25 -34 45 -31 45 4 0 -4 11 -16 24 -52 56 -77 89 -77 100 0 6 -5 4 -10
-4 -8 -12 -10 -11 -10 8 0 13 -6 22 -16 22 -8 0 -12 5 -9 10 3 6 -1 10 -10 10
-9 0 -13 5 -10 10 3 6 0 10 -7 10 -8 0 -20 9 -28 19 -7 11 -17 18 -22 15 -4
-3 -8 2 -8 11 0 9 -7 15 -17 13 -9 -2 -22 6 -28 18 -5 11 -18 20 -28 18 -9 -1
-14 2 -11 8 3 5 -3 12 -15 15 -12 3 -21 9 -21 14 0 5 -7 5 -17 2 -10 -4 -14
-2 -10 4 6 10 -27 27 -45 24 -5 -1 -7 4 -5 11 1 7 -6 12 -16 13 -10 0 -22 7
-27 15 -5 8 -10 11 -10 6 0 -6 -7 -1 -16 10 -8 10 -12 13 -8 5 5 -11 3 -13
-10 -8 -10 4 -22 7 -27 7 -6 0 -8 4 -5 8 2 4 -5 9 -17 9 -12 1 -23 7 -25 13
-2 5 -13 10 -25 10 -20 0 -20 1 -2 13 11 9 15 19 10 27 -5 9 -4 11 3 6 7 -4
12 -2 12 4 0 6 5 8 10 5 6 -3 10 1 10 9 0 8 5 18 12 22 7 5 8 3 3 -6 -5 -9 -4
-11 3 -6 7 4 12 14 12 21 0 9 6 12 15 9 8 -4 15 -1 15 6 0 7 7 10 16 6 8 -3
12 -2 9 4 -5 8 17 25 40 30 6 1 9 6 8 10 -1 4 4 11 13 14 10 4 13 2 8 -7 -6
-9 -5 -9 8 0 8 7 18 10 21 6 4 -3 7 -1 7 6 0 7 4 10 9 6 5 -3 12 -1 16 5 4 6
11 8 16 5 5 -4 9 -1 9 5 0 6 5 8 11 4 6 -3 22 0 36 7 20 11 26 11 32 0 6 -10
10 -9 15 4 3 9 11 13 16 10 6 -4 18 -1 27 7 14 11 16 11 8 -1 -6 -11 -4 -13 9
-8 10 4 26 2 36 -3 16 -9 19 -8 14 7 -5 16 -4 16 8 3 7 -8 22 -15 33 -14 11 0
25 -3 30 -7 16 -11 78 -5 82 8 2 6 -5 17 -17 23 -11 6 -18 15 -15 20 3 4 -11
7 -30 6 -20 -2 -33 -1 -30 2 3 3 -3 10 -13 17 -24 16 -282 21 -282 5 0 -9 -4
-9 -16 0 -12 11 -15 11 -12 -1z m303 -9 c3 -6 -1 -7 -9 -4 -18 7 -21 14 -7 14
6 0 13 -4 16 -10z m-615 -384 c0 4 9 -3 20 -16 12 -13 26 -20 35 -16 9 3 13 2
10 -4 -3 -6 1 -10 9 -10 9 0 16 -4 16 -10 0 -5 7 -6 17 -3 11 4 14 3 9 -5 -4
-7 -1 -12 9 -12 9 0 13 -4 10 -10 -3 -5 3 -10 14 -10 12 0 21 -7 21 -15 0 -8
4 -14 9 -12 5 1 17 -6 28 -15 68 -63 91 -87 86 -92 -6 -6 13 -10 30 -7 5 1 6
-3 3 -8 -4 -5 2 -14 11 -20 10 -6 14 -11 9 -11 -6 0 -1 -7 10 -16 10 -8 13
-12 5 -8 -9 5 -12 3 -7 -4 4 -7 14 -12 23 -12 9 0 13 -6 10 -14 -3 -8 2 -16
13 -19 13 -3 17 -11 13 -26 -4 -14 0 -23 13 -28 25 -9 33 -22 29 -45 -2 -10 0
-16 6 -13 5 4 9 -1 9 -9 0 -9 5 -16 11 -16 5 0 9 -10 7 -22 -2 -14 2 -22 10
-20 12 2 13 -2 16 -51 1 -16 9 -33 17 -37 10 -6 15 -21 13 -45 -2 -23 0 -33 7
-29 7 4 9 -1 5 -14 -4 -12 -2 -23 5 -28 8 -5 10 -3 4 7 -5 8 -4 10 0 6 13 -11
15 -38 3 -31 -7 5 -8 2 -2 -7 4 -8 7 -24 5 -36 -1 -14 3 -23 11 -23 10 0 9 -3
-2 -10 -8 -5 -10 -10 -3 -10 6 0 10 -8 8 -17 -1 -10 3 -24 9 -32 8 -11 8 -13
-1 -7 -9 5 -11 2 -7 -8 3 -9 9 -16 13 -16 4 0 8 -7 8 -15 0 -8 -4 -12 -9 -9
-4 3 -8 1 -8 -5 0 -5 5 -13 10 -16 7 -4 7 -13 0 -26 -6 -10 -7 -19 -3 -19 11
0 9 -242 -2 -259 -5 -10 -4 -12 3 -7 14 8 5 -20 -12 -43 -8 -11 -8 -13 2 -7 7
4 12 1 12 -9 0 -9 -4 -13 -10 -10 -5 3 -10 1 -10 -4 0 -6 5 -11 10 -11 6 0 10
-5 10 -11 0 -5 -5 -7 -12 -3 -8 5 -9 0 -6 -14 4 -12 3 -24 -1 -26 -4 -3 -8
-26 -10 -52 -1 -25 -9 -53 -17 -61 -7 -8 -14 -19 -14 -26 0 -6 7 -2 15 9 15
17 15 16 2 -11 -8 -16 -12 -36 -10 -43 3 -7 -1 -20 -9 -29 -7 -9 -8 -14 -1
-10 7 5 9 0 6 -13 -3 -11 -9 -17 -14 -14 -5 3 -9 0 -9 -5 0 -6 6 -11 13 -12 9
0 9 -2 -1 -6 -6 -2 -10 -9 -6 -14 3 -5 1 -9 -5 -9 -5 0 -8 -9 -6 -20 2 -11 -1
-20 -6 -20 -6 0 -7 -5 -3 -11 3 -6 1 -15 -5 -19 -7 -4 -13 -17 -14 -28 -1 -12
-5 -22 -9 -22 -5 0 -4 -9 2 -20 8 -15 6 -21 -11 -30 -11 -7 -18 -14 -15 -17 3
-3 1 -15 -5 -26 -8 -14 -8 -18 0 -13 14 9 2 -24 -16 -42 -7 -8 -11 -18 -8 -23
4 -5 2 -9 -4 -9 -5 0 -8 -9 -6 -21 3 -16 1 -18 -8 -10 -9 7 -13 5 -15 -10 -4
-42 -6 -49 -13 -49 -5 0 -13 -10 -20 -21 -8 -16 -8 -20 1 -14 8 5 8 1 -1 -13
-7 -12 -17 -18 -23 -15 -5 3 -6 1 -3 -4 8 -13 -17 -76 -26 -66 -4 3 -7 -3 -7
-15 0 -12 -9 -31 -20 -42 -11 -11 -17 -20 -13 -20 4 0 -2 -6 -13 -14 -10 -8
-19 -18 -20 -23 -2 -20 -17 -42 -25 -38 -5 3 -11 -6 -15 -20 -3 -14 -10 -25
-15 -25 -5 0 -9 -7 -9 -15 0 -7 -7 -18 -16 -23 -9 -5 -15 -12 -15 -15 3 -21 0
-27 -9 -22 -6 3 -13 -2 -17 -12 -9 -24 -69 -83 -77 -76 -3 4 -6 2 -6 -4 0 -5
-9 -20 -20 -33 -11 -13 -20 -19 -20 -14 0 5 -9 -6 -20 -24 -11 -18 -25 -30
-30 -27 -6 3 -10 -1 -10 -10 0 -9 -4 -13 -10 -10 -6 4 -7 -1 -3 -11 4 -12 3
-15 -5 -10 -7 4 -12 3 -12 -3 0 -5 -20 -19 -45 -31 -25 -12 -43 -25 -40 -30 3
-4 -9 -13 -25 -19 -17 -5 -29 -16 -28 -23 2 -8 -5 -12 -20 -10 -13 2 -21 -1
-20 -9 2 -6 -5 -13 -15 -14 -10 -2 -26 -13 -36 -24 -10 -11 -21 -18 -25 -14
-3 3 -6 1 -6 -5 0 -7 -3 -11 -7 -11 -19 3 -34 -2 -29 -10 3 -4 -5 -8 -17 -7
-12 1 -29 -7 -38 -18 -8 -10 -31 -20 -49 -21 -19 -2 -36 -8 -38 -13 -2 -6 -9
-9 -17 -6 -7 3 -16 0 -20 -5 -3 -6 -11 -9 -16 -6 -5 4 -9 1 -9 -5 0 -6 -4 -9
-9 -5 -5 3 -13 0 -16 -6 -4 -5 -13 -8 -21 -5 -7 3 -15 2 -18 -2 -2 -4 -19 -7
-38 -7 -18 0 -39 -6 -47 -13 -8 -8 -24 -11 -37 -8 -13 4 -24 3 -24 -2 0 -5
-10 -8 -22 -7 -13 1 -29 -3 -37 -9 -11 -8 -13 -8 -7 2 4 6 3 12 -2 12 -6 0
-13 -8 -16 -17 -6 -15 -8 -15 -16 -3 -6 8 -10 10 -10 4 0 -6 -19 -10 -47 -10
-27 1 -51 -3 -55 -9 -5 -6 -8 -6 -8 2 0 7 -7 10 -15 7 -8 -4 -23 0 -32 7 -12
10 -15 10 -9 2 4 -7 2 -13 -3 -13 -6 0 -11 5 -11 10 0 6 -5 10 -11 10 -5 0 -8
-4 -5 -8 3 -5 -1 -9 -9 -9 -8 0 -12 4 -9 9 3 4 -2 8 -10 8 -9 0 -16 5 -16 10
0 6 -5 10 -11 10 -5 0 -8 -4 -5 -9 4 -5 -5 -4 -18 2 -13 7 -22 15 -20 19 3 5
-1 8 -9 8 -15 0 -50 34 -53 53 -1 7 -5 20 -9 30 -5 11 -2 17 6 17 9 1 8 4 -4
11 -9 5 -17 15 -17 20 0 6 3 8 8 6 4 -3 8 10 9 29 3 58 5 69 19 84 7 8 13 20
14 25 0 6 11 26 22 45 12 19 22 40 23 45 0 6 7 9 14 7 9 -2 11 3 7 13 -3 9 -2
14 3 11 4 -3 17 4 27 16 11 12 13 18 5 13 -10 -5 -12 -4 -7 3 4 7 14 12 22 12
8 0 13 4 9 9 -3 5 10 22 30 36 19 15 32 31 29 36 -3 5 -2 8 3 7 4 -2 18 7 31
20 12 12 27 20 32 17 6 -3 7 1 4 10 -4 10 -2 14 8 10 8 -3 33 12 58 35 24 22
47 40 52 40 19 0 23 2 31 16 5 8 12 12 18 9 5 -4 12 0 15 8 3 9 16 18 30 21
13 4 24 11 24 16 0 6 5 10 11 10 5 0 7 -6 3 -12 -6 -10 -4 -10 7 0 7 6 21 12
30 12 9 0 19 7 23 15 3 8 12 12 21 9 8 -4 15 -1 15 6 0 7 7 10 16 6 10 -4 22
1 31 11 8 10 11 12 8 4 -5 -9 0 -8 18 4 15 9 31 14 37 10 5 -3 10 -1 10 5 0 6
4 9 9 5 5 -3 12 -1 15 4 4 5 18 8 31 5 14 -2 25 0 25 5 0 6 9 8 20 6 11 -2 20
2 20 8 0 8 3 8 9 -1 6 -11 10 -10 15 4 6 16 8 16 16 4 6 -10 10 -11 10 -3 0 7
7 10 17 6 9 -4 14 -2 11 3 -4 5 29 10 75 12 44 1 88 8 96 15 12 10 13 9 6 -2
-6 -10 -4 -13 6 -9 44 17 61 20 55 9 -5 -7 3 -9 25 -4 23 4 30 3 25 -5 -5 -8
-2 -10 8 -6 9 3 13 11 9 18 -4 6 1 5 11 -3 19 -16 32 -7 38 24 2 15 -2 20 -19
19 -13 0 -23 4 -23 9 0 5 -6 4 -14 -2 -8 -7 -17 -8 -20 -3 -6 10 -60 7 -77 -3
-5 -4 -9 0 -9 7 0 10 -2 10 -9 -1 -7 -10 -13 -11 -30 -2 -15 8 -21 9 -21 1 0
-6 -5 -8 -12 -3 -19 11 -37 12 -44 2 -3 -5 -13 -5 -24 1 -13 7 -21 7 -25 -1
-4 -5 -12 -8 -18 -6 -7 2 -18 -3 -25 -12 -10 -14 -11 -13 -5 4 6 18 5 19 -11
6 -9 -8 -39 -15 -66 -17 -27 -1 -54 -5 -59 -8 -5 -4 -13 -1 -16 4 -5 8 -13 6
-26 -6 -15 -13 -19 -14 -19 -3 0 11 -2 11 -10 -1 -5 -8 -10 -11 -10 -7 0 5 -6
5 -12 0 -14 -8 -28 -11 -70 -15 -16 -1 -28 -6 -28 -11 0 -4 -4 -5 -10 -2 -5 3
-10 2 -10 -4 0 -6 -6 -8 -14 -5 -8 3 -17 1 -20 -4 -3 -6 -16 -8 -28 -4 -14 3
-19 2 -14 -6 4 -7 2 -13 -3 -13 -13 -2 -15 -2 -69 -18 -23 -6 -40 -16 -37 -22
4 -5 3 -9 -2 -8 -4 1 -19 -2 -33 -8 -14 -6 -29 -11 -35 -13 -5 -1 -17 -7 -25
-13 -8 -7 -26 -18 -39 -25 -19 -11 -22 -11 -16 0 3 7 -1 4 -9 -6 -18 -22 -43
-29 -52 -15 -3 5 2 9 10 9 8 0 18 5 22 12 5 7 2 9 -9 5 -18 -7 21 56 51 80 10
8 11 11 2 7 -13 -7 -13 -6 0 12 8 10 23 26 32 35 10 9 15 19 11 23 -3 3 -1 6
6 6 7 0 10 4 7 9 -3 4 3 16 14 26 11 10 20 26 20 36 0 10 10 28 23 40 12 12
16 18 8 14 -9 -5 -12 -4 -7 3 4 7 15 12 24 12 11 0 13 3 6 8 -13 8 1 56 14 48
4 -2 9 4 9 15 1 10 9 26 17 35 18 17 21 28 6 19 -6 -4 -1 9 10 27 30 50 41 79
34 90 -4 6 -3 9 2 6 5 -3 15 0 22 8 10 11 10 14 0 14 -9 0 -9 3 -2 8 12 8 28
43 26 55 -1 4 3 7 9 7 6 0 9 7 5 15 -3 8 -1 15 5 15 6 0 8 4 4 9 -3 6 3 14 12
20 14 8 15 10 3 11 -13 0 -13 1 0 10 8 5 11 12 8 16 -4 3 3 15 15 25 16 13 18
18 7 19 -11 0 -12 2 -3 8 7 4 14 18 16 30 2 12 9 28 15 34 7 7 12 22 12 35 0
13 4 23 9 23 5 0 7 8 4 19 -3 10 0 22 6 25 7 5 9 0 5 -11 -5 -14 -4 -15 4 -4
7 10 7 21 0 34 -8 15 -7 18 3 12 9 -6 11 -3 6 8 -3 10 -2 17 4 17 6 0 7 5 4
10 -3 6 -1 10 6 10 7 0 9 3 6 7 -4 3 -1 13 6 21 10 13 9 14 -3 7 -12 -7 -13
-6 -3 7 7 8 10 18 6 21 -3 4 0 7 8 7 9 0 15 13 17 37 1 20 8 41 15 45 6 4 8 8
2 8 -5 0 -1 7 9 15 11 8 14 15 8 15 -7 0 -12 5 -12 11 0 5 5 7 12 3 8 -5 9 0
5 16 -4 15 1 34 15 53 13 18 16 27 7 22 -12 -8 -12 -6 0 8 7 9 10 17 5 17 -4
0 1 7 12 16 10 8 12 12 4 8 -10 -5 -9 -1 3 14 11 11 16 25 13 31 -4 5 -2 12 4
16 6 4 8 11 5 16 -4 5 -2 9 4 9 6 0 7 7 4 17 -4 9 -2 14 3 10 5 -3 10 2 11 11
2 26 8 46 18 62 5 8 10 20 11 25 0 6 2 16 2 23 1 7 7 10 13 7 6 -4 9 -1 8 6
-1 8 3 27 9 42 7 16 10 33 7 38 -4 5 1 6 11 2 13 -5 15 -2 9 15 -4 14 -2 22 5
22 6 0 9 4 6 9 -3 4 1 17 9 27 8 10 15 29 15 42 0 12 4 22 9 22 8 0 22 32 25
56 1 6 8 20 16 30 13 16 13 17 0 9 -9 -5 -8 0 4 13 11 12 16 22 12 22 -4 0 -1
10 6 23 7 12 13 24 13 27 1 3 11 25 23 50 11 24 18 48 15 53 -3 4 3 7 13 5 15
-2 18 2 16 21 -3 15 0 21 8 16 7 -4 10 0 8 11 -2 12 2 18 10 16 8 -1 11 2 7 8
-4 6 5 26 19 44 14 19 22 37 18 41 -4 3 0 5 8 3 8 -1 14 3 13 10 -2 6 2 12 8
12 5 0 7 5 3 11 -4 8 0 8 15 0 11 -7 21 -9 21 -5z"/>
<path d="M6270 5303 c0 -5 -34 -8 -75 -8 -41 1 -75 -2 -75 -5 0 -4 -7 -7 -15
-7 -8 0 -12 4 -9 9 3 4 -2 8 -10 8 -9 0 -16 -4 -16 -10 0 -5 -13 -8 -30 -6
-16 2 -30 0 -30 -4 0 -8 -3 -8 -133 -19 -5 -1 -5 -5 -2 -11 6 -10 3 -11 -32
-14 -10 -1 -24 -5 -32 -10 -11 -7 -12 -6 -6 5 7 11 5 11 -10 -1 -10 -8 -19
-13 -21 -10 -1 3 -6 1 -11 -4 -5 -6 -2 -6 7 -1 9 5 12 5 7 -1 -5 -5 -21 -9
-35 -9 -17 0 -26 -6 -24 -14 1 -7 -2 -10 -7 -6 -6 3 -23 -1 -39 -9 -16 -8 -33
-12 -37 -8 -5 4 -5 1 -1 -5 7 -13 -5 -17 -33 -14 -7 2 -10 -2 -6 -8 3 -6 1
-11 -6 -11 -7 0 -24 -10 -38 -22 -14 -13 -21 -16 -16 -8 6 9 2 8 -7 -2 -9 -10
-23 -17 -30 -16 -7 2 -12 -3 -10 -9 1 -7 -5 -13 -13 -13 -8 0 -44 -29 -79 -64
-35 -36 -67 -62 -72 -58 -4 4 -4 2 -1 -4 3 -6 -3 -21 -14 -32 -11 -12 -17 -22
-13 -22 4 0 -3 -9 -16 -20 -13 -11 -20 -23 -17 -27 4 -3 -3 -14 -15 -24 -11
-11 -18 -19 -13 -19 4 0 1 -8 -6 -17 -12 -15 -12 -16 1 -8 13 8 13 7 0 -10 -8
-10 -15 -21 -15 -24 0 -3 -4 -5 -8 -3 -5 1 -6 -2 -2 -8 3 -5 1 -19 -5 -30 -8
-15 -8 -20 1 -20 8 0 9 -4 0 -13 -6 -8 -8 -17 -4 -20 3 -4 1 -7 -6 -7 -8 0 -9
-5 -2 -17 7 -13 5 -23 -5 -34 -10 -12 -11 -23 -4 -49 7 -25 6 -36 -3 -42 -8
-5 -6 -8 8 -9 11 0 15 -3 8 -5 -8 -4 -9 -13 -3 -30 5 -13 7 -24 4 -24 -4 0 0
-8 7 -17 8 -9 9 -14 2 -10 -8 5 -8 1 0 -18 7 -14 19 -25 27 -26 9 0 11 -2 3
-5 -14 -6 -7 -31 16 -58 13 -16 13 -18 1 -12 -9 5 -8 2 2 -7 10 -8 15 -17 11
-20 -3 -4 0 -7 7 -7 7 0 10 -3 7 -6 -4 -4 3 -15 15 -25 14 -13 16 -19 7 -19
-8 0 -4 -7 9 -16 12 -8 19 -20 16 -26 -4 -7 -2 -8 4 -4 8 4 12 0 12 -11 0 -15
2 -16 10 -3 8 12 10 10 10 -8 0 -15 7 -26 20 -29 11 -3 17 -9 14 -14 -3 -5 1
-9 9 -9 8 0 17 -10 20 -21 4 -14 11 -20 21 -16 8 3 18 1 22 -5 5 -7 2 -8 -7
-4 -8 4 -3 -1 11 -12 13 -11 28 -18 32 -16 8 5 12 -11 9 -29 -1 -5 3 -6 8 -3
5 3 12 -1 15 -10 3 -9 12 -14 19 -11 12 5 40 -17 31 -25 -2 -3 16 -15 41 -28
25 -13 45 -27 45 -32 0 -4 5 -8 11 -8 6 0 31 -17 57 -37 25 -21 42 -31 38 -23
-4 8 0 6 8 -4 9 -11 16 -16 16 -12 0 4 12 -6 26 -21 15 -15 21 -19 14 -8 -7
11 -1 8 13 -7 14 -15 28 -24 31 -21 3 4 6 -1 6 -11 0 -9 4 -15 10 -11 12 8 50
-16 50 -32 0 -7 9 -13 20 -13 11 0 20 -5 20 -11 0 -5 -5 -7 -12 -3 -6 4 -8 3
-4 -4 3 -6 15 -9 26 -7 12 2 18 0 15 -5 -3 -4 8 -14 25 -22 16 -7 30 -19 30
-25 0 -7 9 -13 21 -13 11 0 17 -5 14 -10 -3 -6 5 -14 19 -20 14 -5 26 -14 26
-20 0 -6 5 -8 10 -5 6 3 10 3 10 -2 1 -4 17 -26 37 -48 20 -22 30 -31 22 -20
-13 18 -13 19 4 6 9 -7 17 -20 17 -28 0 -7 6 -16 14 -19 8 -3 20 -19 26 -35 7
-16 15 -27 19 -24 4 2 16 -10 26 -28 10 -17 30 -44 44 -60 14 -16 27 -33 27
-38 1 -5 2 -16 3 -25 0 -9 6 -12 13 -8 7 5 8 3 3 -6 -4 -7 -3 -15 4 -19 6 -4
12 -19 13 -33 1 -15 5 -25 9 -22 7 4 12 -13 24 -75 2 -12 9 -29 16 -37 6 -8 9
-14 5 -14 -3 0 -1 -12 5 -27 7 -20 6 -28 -3 -35 -9 -5 -9 -8 -1 -8 6 0 10 -8
8 -17 -1 -10 2 -29 7 -42 5 -15 5 -28 -2 -35 -14 -14 -13 -29 2 -20 7 5 8 3 3
-6 -8 -13 -15 -68 -16 -132 0 -20 -7 -42 -15 -49 -8 -6 -14 -17 -14 -23 0 -6
5 -4 10 4 19 30 9 -2 -15 -48 -14 -26 -25 -55 -25 -64 0 -10 -5 -18 -11 -18
-6 0 -9 -7 -5 -15 3 -8 1 -15 -4 -15 -6 0 -10 -7 -10 -15 0 -8 -5 -15 -12 -15
-6 0 -9 -3 -6 -6 3 -3 -12 -24 -33 -46 -21 -23 -37 -43 -34 -46 6 -6 -21 -32
-34 -32 -6 0 -8 -7 -5 -15 4 -10 0 -15 -16 -15 -11 0 -18 -4 -15 -10 3 -5 -5
-15 -19 -21 -14 -7 -23 -16 -20 -20 3 -5 -1 -9 -9 -9 -8 0 -24 -9 -37 -20 -12
-11 -27 -17 -33 -13 -5 3 -8 2 -5 -3 3 -5 0 -15 -8 -22 -8 -7 -14 -11 -14 -8
0 3 -14 -8 -30 -24 -17 -17 -42 -30 -55 -30 -13 0 -28 -6 -32 -12 -4 -7 -19
-19 -32 -26 -12 -8 -20 -9 -17 -3 4 7 1 8 -8 5 -9 -3 -14 -10 -11 -15 3 -4
-10 -11 -30 -15 -19 -3 -32 -10 -29 -15 3 -5 0 -10 -5 -10 -6 -1 -15 -3 -21
-4 -5 -1 -15 -3 -21 -4 -5 0 -7 -6 -4 -11 3 -6 -2 -10 -12 -10 -11 0 -25 -6
-32 -12 -11 -11 -12 -10 -6 2 7 12 6 13 -7 3 -8 -7 -19 -9 -23 -5 -5 4 -5 1 0
-7 6 -11 3 -13 -13 -9 -14 4 -20 2 -15 -5 4 -6 0 -8 -10 -4 -10 3 -17 2 -17
-3 0 -5 -7 -7 -15 -4 -8 4 -15 1 -15 -6 0 -6 -4 -8 -10 -5 -5 3 -10 2 -10 -3
0 -9 -16 -12 -57 -12 -13 0 -22 -6 -20 -13 1 -7 -9 -12 -25 -11 -15 0 -25 -4
-22 -8 3 -4 -3 -8 -14 -8 -10 0 -22 -3 -26 -7 -3 -4 -23 -7 -44 -8 -21 -1 -43
-4 -50 -9 -6 -4 -17 -4 -24 0 -7 4 -8 3 -4 -4 4 -7 2 -12 -3 -12 -6 0 -11 4
-11 10 0 5 -7 7 -15 4 -8 -4 -13 -9 -11 -13 2 -3 -15 -7 -38 -9 -70 -5 -81 -7
-88 -17 -5 -6 -12 -4 -18 5 -8 12 -10 12 -10 -5 0 -17 -2 -17 -10 -5 -7 11
-10 12 -10 2 0 -8 -10 -13 -27 -12 -16 1 -30 1 -33 0 -20 -7 -39 -7 -34 1 3 5
-7 4 -23 -2 -35 -13 -34 -13 -44 3 -5 7 -9 8 -9 3 0 -7 -34 -11 -90 -10 -49 0
-90 -3 -90 -6 0 -3 -7 -6 -15 -6 -8 0 -15 3 -15 6 0 3 -20 6 -44 6 -24 0 -42
-4 -38 -9 3 -5 0 -6 -6 -2 -7 4 -38 9 -69 11 -32 1 -67 6 -77 11 -14 5 -17 4
-12 -5 6 -9 3 -9 -13 1 -12 7 -21 17 -21 22 0 4 -6 3 -13 -3 -8 -6 -16 -8 -19
-6 -6 6 -43 15 -71 18 -10 1 -21 7 -25 12 -4 6 -16 11 -27 13 -11 1 -24 4 -30
6 -5 2 -20 7 -32 11 -13 4 -23 11 -23 16 0 5 -3 8 -7 7 -5 -1 -21 4 -36 10
-16 7 -33 12 -38 12 -6 0 -7 5 -4 10 3 6 -1 10 -10 10 -10 0 -13 5 -9 12 5 7
3 8 -6 3 -8 -5 -25 6 -48 31 -19 22 -32 32 -27 24 4 -8 -9 3 -29 25 -20 22
-41 50 -46 63 -6 13 -14 21 -19 17 -6 -3 -8 3 -6 14 2 11 -3 22 -11 25 -9 3
-13 10 -9 15 3 5 -4 26 -15 46 -11 20 -15 33 -9 30 8 -6 8 -2 0 12 -5 11 -10
31 -10 44 -1 51 -2 59 -10 55 -4 -3 -8 1 -8 9 0 8 5 12 10 8 5 -3 6 3 3 15 -4
11 -2 23 4 27 8 5 8 11 0 20 -8 10 -7 16 7 24 10 6 13 11 8 11 -12 0 -15 40
-4 40 4 0 5 10 1 22 -3 14 -1 19 6 14 11 -6 15 4 27 62 4 18 13 36 20 38 8 3
12 14 10 25 -2 11 2 19 10 19 8 0 17 5 21 12 5 7 3 8 -7 3 -7 -5 -4 4 9 19 12
16 22 33 22 38 0 14 27 38 34 31 6 -6 10 12 7 30 -1 5 2 6 7 3 10 -6 62 48 62
63 0 5 6 11 13 14 6 2 16 6 22 8 17 7 51 44 48 52 -2 4 5 7 17 7 12 0 19 4 15
9 -3 5 3 12 14 16 11 3 22 12 25 20 3 8 15 15 26 15 11 0 23 7 26 15 4 8 10
12 15 9 5 -3 9 -1 9 5 0 6 7 7 17 4 11 -4 14 -3 9 5 -4 7 -1 12 8 12 9 0 16 5
16 11 0 6 7 9 15 5 10 -3 15 1 15 12 0 13 2 14 9 4 7 -11 10 -10 15 3 3 9 12
15 19 12 6 -2 17 3 23 11 5 7 26 14 46 15 20 0 35 4 32 8 -4 8 34 22 54 20 6
-1 12 2 12 8 0 5 11 8 25 6 14 -1 28 2 32 8 4 6 1 7 -7 2 -8 -5 -11 -4 -7 2 4
6 22 9 42 8 19 -1 35 3 35 8 0 5 6 7 14 4 7 -3 18 -1 24 5 12 12 41 18 102 21
19 1 41 6 48 10 12 8 16 2 13 -17 -1 -5 5 -4 13 3 9 7 13 18 10 23 -4 6 2 5
14 -1 27 -14 35 -14 26 2 -5 8 -2 8 9 -2 9 -7 17 -10 17 -5 0 5 36 9 80 9 44
0 82 5 84 10 3 6 5 4 5 -2 1 -7 6 -13 12 -13 5 0 7 6 3 13 -6 9 -4 9 7 1 8 -6
28 -10 44 -9 17 1 33 -3 37 -9 5 -7 8 -7 8 3 0 10 3 11 13 3 8 -7 18 -7 27 -2
21 14 46 12 62 -3 7 -7 28 -14 46 -15 54 -3 62 -5 62 -15 0 -6 3 -7 7 -4 3 4
13 1 21 -6 13 -9 14 -9 8 1 -11 18 4 15 27 -5 11 -10 17 -12 13 -5 -10 17 2
15 20 -3 8 -8 22 -11 31 -8 11 4 14 3 9 -5 -5 -8 1 -12 19 -12 14 0 28 -7 31
-15 4 -8 15 -15 25 -15 10 0 19 -5 19 -11 0 -5 4 -8 9 -5 5 3 12 -1 15 -9 3
-8 11 -14 18 -13 8 2 12 -5 10 -16 -2 -11 1 -15 8 -11 13 8 53 -29 42 -39 -3
-4 2 -4 12 0 15 6 17 4 11 -7 -8 -12 -6 -12 8 0 18 14 20 71 3 71 -5 0 -7 3
-4 6 11 10 -121 134 -137 128 -10 -4 -15 0 -15 11 0 9 -4 14 -9 10 -5 -3 -12
-1 -16 5 -4 6 -10 8 -15 5 -4 -3 -10 2 -14 10 -3 8 -12 15 -21 15 -9 0 -27 7
-40 16 -16 10 -25 12 -25 5 0 -8 -10 -6 -31 4 -17 9 -37 14 -45 11 -8 -3 -14
0 -14 6 0 6 -3 8 -7 5 -3 -4 -16 1 -27 10 -18 15 -19 16 -8 1 11 -14 11 -16
-7 -11 -12 3 -19 8 -17 12 2 3 -28 6 -67 6 -40 -1 -79 2 -88 7 -9 4 -21 2 -27
-4 -8 -8 -15 -8 -26 1 -8 7 -17 8 -19 4 -6 -10 -48 -10 -64 0 -5 4 -13 4 -16
0 -11 -10 -67 -11 -73 -2 -3 5 -10 7 -15 3 -11 -7 -91 -17 -126 -17 -13 1 -20
-3 -17 -8 8 -13 -10 -11 -25 4 -11 10 -13 9 -9 -3 4 -10 0 -16 -12 -16 -10 0
-16 5 -12 11 3 5 -2 3 -13 -5 -10 -8 -20 -14 -22 -12 -9 6 -54 1 -49 -6 5 -9
3 -10 -54 -14 -19 -2 -41 -10 -48 -18 -8 -8 -11 -9 -7 -2 9 17 -5 15 -28 -5
-15 -13 -18 -14 -12 -3 7 12 6 13 -7 3 -8 -7 -18 -10 -21 -6 -4 3 -7 1 -7 -5
0 -6 -9 -9 -20 -7 -11 2 -18 0 -15 -5 3 -5 1 -11 -5 -15 -5 -3 -10 0 -10 7 0
8 -3 9 -8 3 -7 -9 -14 -12 -52 -20 -8 -2 -17 -4 -20 -5 -3 -1 -9 -2 -13 -1 -5
1 -6 -3 -3 -8 3 -5 -1 -12 -10 -15 -10 -4 -13 -2 -8 7 6 8 3 8 -9 -1 -9 -8
-22 -10 -28 -6 -8 4 -9 3 -5 -4 4 -7 1 -12 -9 -12 -10 0 -13 -5 -9 -11 5 -9
-1 -10 -20 -5 -19 5 -26 3 -26 -9 0 -8 -4 -16 -10 -16 -5 -1 -13 -2 -17 -3 -5
0 -22 -11 -40 -24 -23 -16 -33 -19 -36 -10 -4 9 -6 8 -6 -3 -1 -9 -8 -16 -16
-17 -8 -1 -21 -3 -29 -4 -8 -1 -12 -7 -9 -13 4 -11 -31 -29 -50 -26 -5 1 -6
-3 -2 -9 3 -5 2 -10 -4 -10 -5 0 -16 -6 -23 -12 -8 -7 -23 -18 -33 -25 -11 -6
-19 -16 -17 -23 1 -6 -2 -9 -7 -6 -5 3 -14 -1 -21 -9 -7 -8 -16 -13 -20 -10
-8 5 -24 -24 -21 -38 1 -5 -3 -6 -9 -2 -5 3 -10 1 -10 -5 0 -6 -4 -8 -10 -5
-5 3 -10 1 -10 -6 0 -6 -20 -31 -45 -55 -25 -23 -45 -46 -45 -51 0 -5 -8 -16
-17 -25 -30 -28 -42 -46 -36 -52 3 -3 -6 -17 -21 -31 -15 -14 -24 -30 -21 -35
3 -6 1 -10 -4 -10 -6 0 -10 -6 -8 -12 1 -7 -3 -12 -10 -11 -7 2 -10 -4 -7 -12
4 -9 0 -23 -7 -32 -10 -11 -10 -14 -2 -9 9 5 11 2 7 -8 -3 -9 -10 -13 -15 -10
-9 5 -10 1 -12 -56 -1 -19 -7 -41 -15 -49 -9 -9 -10 -17 -2 -26 7 -8 7 -15 1
-19 -5 -3 -7 -15 -4 -26 3 -12 0 -20 -6 -20 -7 0 -9 5 -5 12 4 7 3 8 -5 4 -8
-5 -7 -13 4 -29 8 -12 15 -26 15 -32 0 -5 -5 -3 -10 5 -5 8 -10 11 -10 6 0 -5
8 -18 18 -29 9 -11 11 -17 5 -13 -14 8 -18 -10 -5 -18 5 -3 8 -15 7 -28 -1
-12 4 -34 11 -47 10 -20 11 -27 1 -33 -8 -5 -6 -8 6 -8 10 0 16 -4 12 -9 -3
-5 -1 -12 5 -16 6 -4 8 -11 5 -16 -4 -5 -1 -9 5 -9 7 0 9 -7 6 -16 -3 -8 -2
-12 4 -9 9 6 14 -8 11 -27 0 -5 2 -7 7 -5 11 3 55 -40 50 -50 -5 -8 24 -40 39
-45 5 -2 7 -7 5 -11 -1 -5 2 -6 8 -2 5 3 10 1 10 -4 0 -6 6 -10 13 -8 6 1 11
-6 11 -15 -1 -10 3 -15 8 -12 5 4 23 -3 39 -15 15 -11 36 -21 45 -21 10 0 15
-3 11 -6 -10 -10 136 -78 169 -78 18 -1 30 -4 28 -7 -4 -7 28 -20 56 -23 8 -1
26 -8 39 -15 14 -8 21 -9 17 -2 -4 6 -2 11 3 11 6 0 11 -4 11 -10 0 -5 7 -6
17 -3 11 4 14 3 9 -5 -4 -7 -2 -12 3 -12 6 0 11 6 11 13 0 8 3 8 8 2 4 -6 14
-10 22 -10 8 1 23 -3 34 -8 14 -7 16 -6 11 4 -6 9 -4 10 6 3 8 -5 32 -10 54
-10 22 -1 42 -3 45 -4 3 -1 8 -2 13 -1 4 0 7 -4 7 -10 0 -8 4 -8 14 0 8 7 16
8 19 4 6 -9 219 -9 255 0 13 4 20 2 17 -4 -4 -5 -2 -9 4 -9 5 0 13 5 16 10 4
7 13 6 27 -1 16 -9 19 -8 12 3 -6 11 -5 11 9 -1 15 -12 21 -9 19 10 -1 4 14 3
33 -1 19 -4 35 -5 35 -1 0 3 41 6 91 6 50 0 93 3 96 8 2 4 9 5 14 1 6 -3 20 2
31 13 21 18 21 18 15 -2 -7 -19 -6 -19 7 -1 8 10 19 15 25 11 6 -3 11 0 11 7
0 8 3 9 8 3 10 -13 32 -17 32 -6 0 5 12 8 26 5 19 -3 24 -1 18 8 -5 10 -4 10
6 1 11 -10 16 -9 27 5 8 9 11 11 8 3 -5 -8 3 -6 21 5 21 14 26 15 19 4 -7 -12
-6 -13 6 -4 8 5 21 10 29 9 8 0 18 4 22 10 5 6 8 6 8 -2 0 -7 7 -10 15 -7 8 4
13 9 11 13 -4 6 26 12 77 14 9 1 17 7 17 13 0 7 19 15 43 19 23 4 48 12 55 17
6 6 12 7 12 3 0 -4 6 -2 14 4 7 6 22 8 31 4 14 -5 16 -3 10 7 -6 10 -4 12 8 7
10 -3 17 -2 17 4 0 6 5 7 10 4 6 -3 10 -2 10 4 0 6 7 8 15 5 8 -4 15 -1 15 5
0 6 7 8 17 4 11 -4 14 -3 9 5 -4 8 0 12 12 12 10 0 28 9 39 20 15 14 23 16 26
7 4 -9 6 -9 6 1 1 6 7 12 15 12 7 0 19 6 26 14 6 8 19 12 27 9 12 -5 14 -3 8
7 -6 10 -4 12 8 7 9 -3 18 0 21 9 3 8 12 14 21 14 20 0 96 40 112 60 7 8 13
12 13 7 0 -4 23 8 51 28 28 19 56 35 61 35 5 0 7 4 4 9 -7 11 22 23 35 15 5
-3 8 -1 7 4 -3 11 81 92 95 92 5 0 5 5 2 10 -3 6 2 10 11 10 10 0 15 2 12 5
-7 8 54 70 65 67 5 -1 6 2 2 8 -3 5 -1 10 6 10 7 0 10 3 6 6 -3 4 2 14 13 23
10 9 27 33 38 53 10 21 22 35 26 31 3 -3 6 3 6 15 0 12 5 22 11 22 6 0 9 7 5
15 -3 8 0 14 7 12 7 -1 11 6 9 15 -1 9 3 20 9 24 8 5 9 3 4 -6 -5 -8 -4 -11 3
-6 5 3 13 24 17 45 4 22 13 42 21 45 8 3 14 10 14 16 0 6 -4 8 -10 5 -6 -3 -7
1 -4 9 3 9 11 13 18 9 6 -3 6 -1 -1 8 -7 7 -13 18 -13 23 0 6 4 5 9 -3 7 -11
11 -4 17 25 4 21 8 46 9 54 0 9 4 21 9 28 4 7 2 12 -6 12 -9 0 -10 3 -2 8 6 4
10 15 8 25 -1 9 2 17 7 17 5 0 7 15 5 33 -2 17 1 40 6 50 6 13 5 19 -7 23 -12
5 -14 14 -10 34 4 17 1 31 -5 35 -9 6 -9 10 1 16 9 6 10 12 4 17 -6 4 -10 14
-10 22 1 8 -3 23 -8 34 -6 13 -6 16 2 12 7 -5 9 -1 5 8 -3 9 -11 16 -17 16 -6
0 -7 3 -4 7 4 3 1 13 -6 21 -10 13 -9 14 3 7 13 -8 13 -6 1 8 -7 9 -11 24 -7
32 3 8 0 15 -7 15 -19 1 -49 72 -34 82 8 5 6 8 -6 8 -10 0 -15 5 -12 10 3 6 1
10 -4 10 -6 0 -10 6 -9 13 2 6 -3 11 -10 9 -8 -1 -11 2 -8 7 9 14 -4 41 -19
41 -8 0 -11 8 -8 19 3 10 -1 22 -8 26 -8 6 -10 4 -4 -6 5 -8 -1 -5 -13 5 -24
21 -29 31 -9 20 6 -4 -6 11 -28 32 -23 22 -32 33 -20 25 11 -8 -4 9 -34 37
-29 29 -49 52 -45 53 5 0 -1 4 -14 10 -14 5 -20 13 -16 20 4 8 3 9 -4 5 -7 -4
-12 -2 -12 4 0 6 -4 9 -9 5 -5 -3 -12 4 -16 15 -4 11 -10 18 -15 15 -4 -3 -10
2 -14 10 -3 8 -13 15 -23 15 -14 0 -15 2 -5 9 10 6 6 11 -17 19 -17 6 -31 14
-31 17 0 3 5 3 12 -1 7 -4 8 -3 4 4 -4 6 -14 8 -23 5 -11 -4 -14 -3 -9 5 4 7
1 12 -8 12 -9 0 -16 5 -16 10 0 6 -7 10 -15 10 -8 0 -15 7 -15 16 0 8 -4 13
-9 9 -5 -3 -17 2 -25 11 -9 8 -16 12 -16 8 0 -4 -7 1 -15 12 -8 10 -15 15 -15
9 0 -5 -4 -5 -8 2 -4 6 -14 13 -22 15 -8 2 -23 11 -34 21 -11 9 -25 17 -31 17
-6 0 -17 9 -24 19 -8 11 -21 17 -29 13 -10 -3 -13 -1 -8 6 3 6 2 13 -4 17 -5
3 -10 0 -10 -7 0 -7 -7 -2 -16 10 -9 13 -22 21 -30 18 -9 -3 -11 0 -7 11 4 10
2 14 -4 10 -6 -4 -18 0 -26 8 -9 8 -20 15 -26 15 -6 0 -11 5 -11 10 0 6 -6 10
-14 10 -7 0 -19 7 -26 15 -6 8 -17 13 -23 12 -7 -1 -11 4 -10 11 2 6 -3 12
-11 12 -8 0 -22 10 -30 22 -9 12 -16 19 -16 14 0 -5 -8 1 -19 12 -10 12 -22
22 -26 22 -4 0 -22 16 -41 35 -18 19 -38 35 -45 35 -7 0 -10 3 -6 6 3 3 -5 18
-18 32 -13 14 -22 29 -19 34 3 4 -2 8 -11 8 -9 0 -14 4 -10 9 3 6 -3 14 -12
20 -10 6 -14 11 -8 11 5 0 -1 7 -13 16 -13 9 -22 26 -22 40 0 14 -4 22 -10 19
-5 -3 -11 4 -12 17 -2 37 -3 42 -12 57 -7 10 -5 12 5 7 8 -4 6 -1 -4 7 -10 8
-14 17 -10 20 5 3 9 20 10 39 1 31 1 31 -8 8 -8 -23 -8 -22 -3 5 3 17 6 41 8
55 2 14 7 33 11 42 4 9 3 23 -1 30 -4 7 -4 10 1 6 8 -8 39 41 31 50 -5 4 5 19
41 58 12 13 19 24 15 24 -3 0 4 7 16 16 12 8 20 20 16 25 -3 5 -2 9 3 8 4 -1
15 -1 23 0 13 1 13 2 0 11 -12 8 -10 10 8 10 13 0 20 4 17 10 -3 6 -1 10 6 10
6 0 18 8 26 18 8 9 12 11 8 5 -3 -7 -4 -13 0 -13 3 0 10 12 16 28 6 15 13 22
16 15 3 -8 10 -7 22 5 27 26 62 47 72 44 5 -1 9 2 9 7 0 5 11 12 25 15 14 4
23 11 20 16 -3 6 1 7 10 4 8 -4 22 -1 30 6 8 7 15 9 15 4 0 -5 4 -4 8 1 10 14
55 39 48 26 -4 -7 -1 -8 8 -5 9 3 16 9 16 13 0 7 13 9 85 13 19 1 32 5 30 9
-3 3 6 9 20 11 13 3 26 0 29 -6 3 -6 5 -5 5 3 1 10 4 11 15 2 11 -9 18 -8 30
4 9 9 16 12 16 6 0 -9 49 -5 59 4 2 2 13 0 24 -6 15 -9 18 -8 12 2 -5 8 -4 10
4 5 6 -4 23 -9 37 -12 19 -3 24 -1 18 8 -6 10 -3 9 9 -1 9 -7 17 -10 17 -6 0
4 6 3 13 -2 6 -6 19 -11 27 -11 73 -6 140 -19 149 -28 3 -4 -2 -4 -12 -1 -11
4 -16 3 -12 -3 3 -6 18 -10 32 -10 14 0 32 -8 40 -17 8 -10 12 -13 9 -6 -4 6
14 0 39 -13 25 -14 45 -30 45 -36 0 -6 7 -7 16 -4 10 4 18 -1 21 -14 3 -10 14
-22 25 -26 11 -3 17 -8 14 -11 -3 -4 2 -12 12 -20 11 -9 11 -12 2 -7 -8 4 -5
-3 8 -15 12 -12 22 -27 22 -33 0 -7 -7 -3 -16 8 -15 17 -15 17 0 -8 9 -15 16
-29 16 -31 0 -10 -50 -13 -62 -5 -9 7 -7 8 7 3 16 -5 17 -4 8 6 -9 9 -42 12
-100 12 -108 -2 -122 -4 -120 -17 1 -5 -3 -10 -10 -11 -11 0 -67 -55 -56 -55
3 0 -1 -8 -8 -17 -12 -14 -12 -16 1 -9 8 4 6 0 -4 -8 -11 -9 -16 -16 -12 -16
5 0 3 -6 -3 -14 -9 -10 -9 -16 -1 -21 7 -4 8 -11 2 -18 -11 -15 -3 -89 9 -81
5 3 9 -5 9 -17 0 -12 11 -32 25 -45 14 -13 25 -28 25 -34 0 -6 4 -9 9 -6 4 3
19 -3 31 -14 26 -22 23 -21 70 -24 19 -2 41 2 49 8 12 9 13 8 6 -4 -7 -13 -6
-13 7 -2 11 9 18 10 23 2 3 -6 11 -8 16 -4 5 3 6 10 3 16 -4 7 -2 8 4 4 7 -4
17 -2 24 4 7 5 25 20 41 31 15 11 24 26 20 32 -4 7 0 8 11 4 9 -4 14 -3 11 2
-3 5 -1 12 5 16 6 4 8 10 5 15 -3 5 1 12 9 17 8 4 15 11 16 15 7 32 13 48 19
48 3 0 7 21 9 47 1 25 8 53 15 62 9 12 9 13 0 7 -7 -4 -13 -3 -13 3 0 5 6 12
13 14 8 4 9 8 2 14 -6 4 -11 32 -10 61 0 43 -4 56 -19 64 -15 8 -16 12 -5 19
11 7 11 9 1 9 -7 0 -10 5 -7 10 3 6 1 10 -4 10 -6 0 -10 3 -9 8 3 7 -9 24 -47
65 -11 12 -19 25 -17 30 1 4 -1 6 -5 6 -21 -3 -33 2 -27 13 4 6 3 8 -3 5 -6
-4 -30 6 -54 22 -24 15 -51 25 -59 23 -8 -3 -11 -1 -7 4 6 7 -14 14 -103 38
-8 3 -15 5 -15 7 0 1 -9 3 -20 5 -71 11 -104 15 -132 17 -18 1 -33 4 -33 7 0
3 -26 5 -57 4 -32 -1 -64 3 -70 9 -8 5 -13 6 -13 0z m600 -423 c0 -5 -2 -10
-4 -10 -3 0 -8 5 -11 10 -3 6 -1 10 4 10 6 0 11 -4 11 -10z"/>
<path d="M5910 3686 c0 -2 8 -10 18 -17 15 -13 16 -12 3 4 -13 16 -21 21 -21
13z"/>
<path d="M6383 3215 c0 -8 4 -12 9 -9 5 3 6 10 3 15 -9 13 -12 11 -12 -6z"/>
<path d="M5390 3206 c0 -9 30 -14 35 -6 4 6 -3 10 -14 10 -12 0 -21 -2 -21 -4z"/>
<path d="M1059 2303 c-13 -16 -12 -17 4 -4 9 7 17 15 17 17 0 8 -8 3 -21 -13z"/>
</g>
</svg>
