<?xml version="1.0" encoding="utf-8"?>
<!-- Generator: Adobe Illustrator 27.5.0, SVG Export Plug-In . SVG Version: 6.00 Build 0)  -->
<svg version="1.1" id="Content" xmlns="http://www.w3.org/2000/svg" xmlns:xlink="http://www.w3.org/1999/xlink" x="0px" y="0px"
	 viewBox="0 0 680.315 481.89" style="enable-background:new 0 0 680.315 481.89;" xml:space="preserve">
<g>
	<path d="M537.824,211.302c-0.902-1.102-3.584-1.75-4.667,0.167c-2.017,3.569-6.083,9.833-14.333,9.167
		c-17.15-1.386-38.5-40.167-42.667-58.833c7.333-4.5,24.5-24.833,33.333-40.5c8.834-15.667,5.667-35-18-14.241
		c-23.666,20.759-34.5,60.241-34.5,60.241s0.032-13.125,3.72-32.192c11.863-19.215,44.566-70.386,54.947-87.308
		c12.167-19.833-5-34-20.667-17.122c-22.741,24.5-35.305,67.268-41.609,101.199c-19.245,32.364-36.048,62.047-37.724,61.089
		c-3.366-1.923,14.092-44.734,18.875-54.875c7.292-15.458-5.708-25.625-21.752-7.375c-23.531,26.768-45.873,67.25-45.873,67.25
		c5.75-22.667,17.778-49.575,22.25-57.667c3.5-6.333-4.5-8.666-8.5-2c-3.096,5.159-11.743,22.443-17.918,38.919
		c-8.756,12.702-29.466,41.849-33.582,39.497c-5.25-3,19.75-43.925,23.75-46.962c-2.875-7.038-11.5-4.288-20.5,7.212
		s-37.418,52-47.209,49c-9.791-3,1.228-27.653,17.959-50c18.625-24.875,31-23.75,27-16.776c-4.887,8.52-4.75,10.151-3.25,11.276
		s5.75,1.25,10-7.5s0.25-18.765-10.875-18.75c-10.838,0.015-31.468,20.234-45.251,46.417c-9.924,14.745-32.079,53.143-36.624,50.309
		c-5.25-3.275,14.5-44.476,18.75-54.726s5.75-26-8.5-17.5c-15.603,9.307-33.75,36.25-51,64.25
		c25.622-75.497,44.051-122.224,50.86-138.989c51.148-15.004,104.767-22.559,149.557-15.807c5.163,0.778,7.416,1.129,8.5-2.787
		c1.188-4.296,0.379-5.123-6.334-7.167c-16.871-5.137-72.562-7.632-146.926,14.013c3.978-10.075,5.27-15.172,1.343-16.263
		c-4.5-1.25-5.25-2.535-12.75,14.5c-0.769,1.747-1.638,3.783-2.587,6.052c-7.328,2.365-14.816,4.961-22.445,7.812
		c3.819-9.02,3.793-12.271,1.788-13.867c-1.159-0.922-3.926-1.588-5.506-2.098c-6.45-2.084-12.84,12.997-17.144,24.262
		c-24.492,10.322-50.201,23.238-76.606,39.339c-3.636,2.217-3.676,4.097-2.584,6c0.917,1.596,3.501,2.294,7.25,0
		c19.602-11.993,42.695-23.637,67.644-33.955c-9.217,24.478-32.215,86.5-38.811,121.455c-7.5,39.75,1.618,41.979,5.75,40.625
		c2.417-0.792,2.375-4.25,0.25-5s-0.375-21.75,4.875-42c4.775-18.417,34.18-91.576,47.813-122.868
		c7.535-2.79,15.192-5.443,22.931-7.938c-13.233,33.126-34.085,89.733-39.619,110.432c-6.75,25.25-12,40-7.75,43.25s9-1,13.5-8.25
		s24.75-37,33.5-49s17.75-20.25,13-9s-26.75,54.25-14.75,63c8.183,5.967,24.036-15.615,33.295-29.95
		c-0.082,6.356,1.96,12.423,8.705,15.2c12.75,5.25,43.75-32.75,48-39c-9.5,19.25-7.888,26.076-3.25,29
		c4.894,3.085,19.549-7.743,31.819-26.909c-5.299,25.136,5.164,27.953,15.098,8.243c10.666-21.167,49.166-76.833,54.333-75.666
		c3.796,0.857-5.5,19.5-11.667,34.166c-6.166,14.667-13.019,33.895-2.833,37.833c5.183,2.004,12.973-6.421,20.602-17.493
		c6.307-9.154,12.785-20.608,17.545-29.395c-2.953,23.431-1.771,33.797-1.564,35.805c0.25,2.417,0.315,4.966,3.917,5.167
		c3.375,0.188,4.512-0.394,4.938-2.938c2.375-14.188,10.895-40.979,27.729-67.146c16.833-26.167,28.779-27.82,17.833-6.333
		c-12.375,24.291-35,39.834-35,39.834s4.5,27.833,25.833,53.833c23.76,28.957,42.27,8.401,44.334,5.167
		C540.324,214.219,538.806,212.5,537.824,211.302z M510.99,30.969c6.5,2.5-7.833,21.25-34.583,63.25
		c-2.957,4.643-5.974,9.482-9.005,14.416C485.975,46.395,504.761,28.573,510.99,30.969z"/>
	<path d="M421.177,350.733c-7.568-1.177-55.573-4.261-114.874,8.197c5.678-20.309,8.61-38.303,10.604-45.712
		c4.375-16.25,16.125-47,19.375-52.25c3.25-5.25-5.375-5.812-8.063-3.563c-2.718,2.276-6.974,7.365-9.813,12.313
		c-12.308,21.451-49.125,68.875-52.125,71.75s-10.99,10.325-9-2.5c1.99-12.824,24.375-63,26.875-70.25s-4.75-10-14.375-5.875
		s-31.75,21.625-42.25,29.125s-19.5,9.625-20.375,8s-3-4.25-5.375-3.125s-3.5,4-2.625,6.5s3.125,9,15.5,4.125s42.25-27,51-33.5
		s9.875-3.625,6.625,3.625c-7.163,15.98-21.886,48.827-23.795,61.746c-1.164,7.879,2.977,11.648,9.545,13.629
		c15.095,4.553,53.875-58.75,53.875-58.75c-4.222,17.1-8.97,42.278-16.919,67.274c-132.203,32.349-78.214,117.569-23.831,65.976
		c15.77-14.961,25.976-38.475,32.806-60.576c44.491-9.319,97.468-10.548,114.361-8.924c3.995,0.385,7.333,0,7.5-2.333
		C425.99,353.302,425.907,351.469,421.177,350.733z M263.824,422.469c-41.927,47.487-80.8-23.915,28.449-52.837
		C285.413,389.277,276.377,408.251,263.824,422.469z"/>
	<path d="M489.907,259.219c-12.375,10.75-36.207,50.56-48.875,47c-12.668-3.559-2.75-35.125,3.375-48.25
		c6.125-13.125,12.875-21.75,8.75-23.75s-7.125-1.375-17.5,18.125s-34.75,63-44.375,59s-1.25-32.125,3.25-40.5
		s17.125-25.25,11.375-27.75c-5.389-2.343-8.875,1.5-20.125,25c-5.262,10.992-31.625,61.625-48.375,62s7.875-51,16.875-62
		s18-8.875,13.625,6.25s-6.75,17.75-8.625,20.375s-1.875,4.25,0,5.375s4,1.625,7.25-2.625s14.5-26.25,8-37.625
		c-6.5-11.375-20.5-7.25-33.5,12.875s-24.125,54-8.75,62.25s40.25-26.375,46.625-39.5c-1.5,15.125,5.25,27.5,18.625,23.375
		s30.75-37.875,30.75-37.875s-6.125,26.875,9.625,33.5s46.739-38.677,52.5-46.875c4.875-6.938,11.25-7,12.5-2.125
		c0.815,3.179,3.125,2.375,4.5,1.625s2.25-3,1-6.125S502.282,248.469,489.907,259.219z"/>
</g>
</svg>
